<svg xmlns="http://www.w3.org/2000/svg" xmlns:xlink="http://www.w3.org/1999/xlink" viewBox="167.9999958 319.99999199999996 999.999975 693.3333160000001" id="svg1" version="1.1" style="max-height: 500px" width="999.999975" height="693.3333160000001">
  <defs id="defs1">
    
    <clipPath id="clipPath2" clipPathUnits="userSpaceOnUse">
      <path id="path2" transform="translate(-593.18461,-523.73001)" d="M 0,1000 H 1000 V 0 H 0 Z"/>
    </clipPath>
    <clipPath id="clipPath4" clipPathUnits="userSpaceOnUse">
      <path id="path4" transform="translate(-363.24801,-513.48101)" d="M 0,1000 H 1000 V 0 H 0 Z"/>
    </clipPath>
    <clipPath id="clipPath6" clipPathUnits="userSpaceOnUse">
      <path id="path6" transform="translate(-403.93601,-566.66942)" d="M 0,1000 H 1000 V 0 H 0 Z"/>
    </clipPath>
    <clipPath id="clipPath8" clipPathUnits="userSpaceOnUse">
      <path id="path8" transform="translate(-412.80761,-585.86132)" d="M 0,1000 H 1000 V 0 H 0 Z"/>
    </clipPath>
    <clipPath id="clipPath10" clipPathUnits="userSpaceOnUse">
      <path id="path10" transform="translate(-574.62352,-582.34772)" d="M 0,1000 H 1000 V 0 H 0 Z"/>
    </clipPath>
    <clipPath id="clipPath12" clipPathUnits="userSpaceOnUse">
      <path id="path12" transform="translate(-545.43311,-607.94972)" d="M 0,1000 H 1000 V 0 H 0 Z"/>
    </clipPath>
    <clipPath id="clipPath14" clipPathUnits="userSpaceOnUse">
      <path id="path14" transform="translate(-551.49851,-610.27392)" d="M 0,1000 H 1000 V 0 H 0 Z"/>
    </clipPath>
    <clipPath id="clipPath16" clipPathUnits="userSpaceOnUse">
      <path id="path16" transform="translate(-435.40331,-607.95902)" d="M 0,1000 H 1000 V 0 H 0 Z"/>
    </clipPath>
    <clipPath id="clipPath18" clipPathUnits="userSpaceOnUse">
      <path id="path18" transform="translate(-150.835,-262.0493)" d="M 0,1000 H 1000 V 0 H 0 Z"/>
    </clipPath>
    <clipPath id="clipPath20" clipPathUnits="userSpaceOnUse">
      <path id="path20" transform="translate(-249.56491,-276.97271)" d="M 0,1000 H 1000 V 0 H 0 Z"/>
    </clipPath>
    <clipPath id="clipPath22" clipPathUnits="userSpaceOnUse">
      <path id="path22" transform="translate(-366.44041,-246.00198)" d="M 0,1000 H 1000 V 0 H 0 Z"/>
    </clipPath>
    <clipPath id="clipPath24" clipPathUnits="userSpaceOnUse">
      <path id="path24" transform="translate(-584.22952,-262.0493)" d="M 0,1000 H 1000 V 0 H 0 Z"/>
    </clipPath>
    <clipPath id="clipPath26" clipPathUnits="userSpaceOnUse">
      <path id="path26" transform="translate(-708.28272,-251.1641)" d="M 0,1000 H 1000 V 0 H 0 Z"/>
    </clipPath>
    <clipPath id="clipPath28" clipPathUnits="userSpaceOnUse">
      <path id="path28" transform="translate(-491.25931,-251.1641)" d="M 0,1000 H 1000 V 0 H 0 Z"/>
    </clipPath>
    <clipPath id="clipPath30" clipPathUnits="userSpaceOnUse">
      <path id="path30" transform="translate(-809.80225,-286.17481)" d="M 0,1000 H 1000 V 0 H 0 Z"/>
    </clipPath>
    <clipPath id="clipPath32" clipPathUnits="userSpaceOnUse">
      <path id="path32" transform="translate(-473.18211,-268.88621)" d="M 0,1000 H 1000 V 0 H 0 Z"/>
    </clipPath>
    <clipPath id="clipPath34" clipPathUnits="userSpaceOnUse">
      <path id="path34" transform="translate(-517.20412,-268.88621)" d="M 0,1000 H 1000 V 0 H 0 Z"/>
    </clipPath>
    <clipPath id="clipPath36" clipPathUnits="userSpaceOnUse">
      <path id="path36" transform="translate(-494.50981,-268.88621)" d="M 0,1000 H 1000 V 0 H 0 Z"/>
    </clipPath>
    <clipPath id="clipPath38" clipPathUnits="userSpaceOnUse">
      <path id="path38" transform="translate(-511.91261,-268.88621)" d="M 0,1000 H 1000 V 0 H 0 Z"/>
    </clipPath>
    <clipPath id="clipPath40" clipPathUnits="userSpaceOnUse">
      <path id="path40" transform="translate(-475.48191,-268.88621)" d="M 0,1000 H 1000 V 0 H 0 Z"/>
    </clipPath>
    <clipPath id="clipPath42" clipPathUnits="userSpaceOnUse">
      <path id="path42" transform="translate(-854.6035,-334.57321)" d="M 0,1000 H 1000 V 0 H 0 Z"/>
    </clipPath>
  </defs>
  
    
  
  <g id="layer-MC0">
    <path clip-path="url(#clipPath2)" transform="matrix(1.3333333,0,0,-1.3333333,790.9128,635.02667)" style="fill:#1e2a59;fill-opacity:1;fill-rule:nonzero;stroke:none" d="M 0,0 C 9.256,-10.469 24.403,-10.249 24.403,-10.249 13.038,-19.039 -0.02,-10.946 0,0 m -70.184,28.864 -26.164,6.484 c 0,0 5.51,-25.758 31.249,-30.865 15.573,-3.089 27.876,4.967 27.876,4.967 0,0 -10.376,-13.188 -29.157,-9.857 -3.655,-44.08 -12.607,-87.559 -26.664,-129.498 l -8.007,-23.887 c 45.844,27.654 85.37,30.391 94.164,31.756 -6.322,50.768 2.158,73.786 42.637,69.691 15.505,-1.569 24.029,-3.875 34.697,-6.338 l 13.75,25.311 c -53.958,14.317 -61.975,47.615 -61.975,47.615 0,0 -62.087,7.072 -92.406,14.621" id="path1"/>
    <path clip-path="url(#clipPath4)" transform="matrix(1.3333333,0,0,-1.3333333,484.33067,648.692)" style="fill:#1e2a59;fill-opacity:1;fill-rule:nonzero;stroke:none" d="M 0,0 C 0,0 15.147,-0.22 24.403,10.249 24.423,-0.697 11.366,-8.79 0,0 m 2.181,24.492 c 0,0 -8.016,-33.298 -61.975,-47.615 l 13.75,-25.311 c 10.669,2.463 19.192,4.769 34.697,6.338 40.48,4.096 48.959,-18.923 42.637,-69.691 8.794,-1.365 48.32,-4.102 94.164,-31.756 l -8.007,23.887 C 103.391,-77.717 94.438,-34.238 90.783,9.842 72.002,6.511 61.626,19.699 61.626,19.699 c 0,0 12.304,-8.056 27.876,-4.967 25.739,5.107 31.249,30.865 31.249,30.865 L 94.587,39.113 C 64.268,31.564 2.181,24.492 2.181,24.492" id="path3"/>
    <path clip-path="url(#clipPath6)" transform="matrix(1.3333333,0,0,-1.3333333,538.58133,577.77413)" style="fill:#1e2a59;fill-opacity:1;fill-rule:nonzero;stroke:none" d="m 0,0 c 0.753,4.384 1.441,8.903 2.021,13.502 0.092,0.723 0.168,1.451 0.255,2.176 -35.095,19.241 -56.653,62.516 -61.738,73.645 -4.014,-1.695 -7.835,-3.245 -11.44,-4.66 C -65.458,71.948 -41.485,20.836 0,0" id="path5"/>
    <path clip-path="url(#clipPath8)" transform="matrix(1.3333333,0,0,-1.3333333,550.41013,552.18493)" style="fill:#1e2a59;fill-opacity:1;fill-rule:nonzero;stroke:none" d="m 0,0 c -0.116,-1.08 -0.25,-2.154 -0.376,-3.231 -0.126,-1.077 -0.242,-2.156 -0.378,-3.229 -0.656,-5.193 -1.431,-10.342 -2.332,-15.415 -0.185,-1.037 -0.411,-2.045 -0.606,-3.075 -0.196,-1.03 -0.4,-2.053 -0.606,-3.076 -2.236,-11.076 -5.095,-21.722 -8.811,-31.478 l 14.557,-4.375 c 5.575,14.634 9.279,30.922 11.663,47.709 0.218,1.532 0.42,3.068 0.616,4.607 0.193,1.522 0.396,3.041 0.569,4.567 0.818,7.233 1.42,14.514 1.819,21.767 0.089,1.616 0.163,3.229 0.234,4.84 0.069,1.597 0.128,3.188 0.18,4.778 1.155,35 -1.773,68.254 -4.369,89.652 C 8.112,111.203 4.042,108.474 -0.032,105.853 2.255,79.362 4.196,38.957 0,0" id="path7"/>
    <path clip-path="url(#clipPath10)" transform="matrix(1.3333333,0,0,-1.3333333,766.16467,556.86973)" style="fill:#1e2a59;fill-opacity:1;fill-rule:nonzero;stroke:none" d="M 0,0 C 0.087,-0.725 0.164,-1.453 0.255,-2.176 0.836,-6.775 1.523,-11.294 2.276,-15.678 43.762,5.158 67.733,56.269 73.178,68.984 69.574,70.4 65.753,71.95 61.739,73.645 56.653,62.516 35.095,19.241 0,0" id="path9"/>
    <path clip-path="url(#clipPath12)" transform="matrix(1.3333333,0,0,-1.3333333,727.24413,522.73373)" style="fill:#1e2a59;fill-opacity:1;fill-rule:nonzero;stroke:none" d="m 0,0 c -28.644,34.271 -40.599,78.504 -45.533,111.722 -0.774,-5.863 -1.723,-12.028 -2.944,-18.483 -0.095,-0.504 -0.201,-1.018 -0.307,-1.532 L -48.986,90.71 C -49.807,86.552 -50.772,82.19 -51.859,77.712 -43.505,43.851 -27.837,5.964 1.509,-22.804 1.039,-17.801 0.625,-12.75 0.345,-7.655 0.205,-5.097 0.095,-2.546 0,0" id="path11"/>
    <path clip-path="url(#clipPath14)" transform="matrix(1.3333333,0,0,-1.3333333,735.33133,519.6348)" style="fill:#1e2a59;fill-opacity:1;fill-rule:nonzero;stroke:none" d="m 0,0 c 0.053,-1.606 0.112,-3.214 0.183,-4.827 0.069,-1.603 0.144,-3.207 0.232,-4.814 0.399,-7.254 1.001,-14.535 1.819,-21.767 0.173,-1.527 0.376,-3.046 0.569,-4.567 0.196,-1.54 0.398,-3.076 0.615,-4.608 2.385,-16.786 6.089,-33.074 11.664,-47.709 l 14.558,4.375 c -3.718,9.756 -6.576,20.402 -8.812,31.478 -0.206,1.022 -0.411,2.045 -0.606,3.075 -0.195,1.031 -0.422,2.039 -0.606,3.076 -0.902,5.073 -1.677,10.223 -2.332,15.415 -0.136,1.074 -0.253,2.153 -0.378,3.23 -0.126,1.077 -0.26,2.151 -0.376,3.23 C 12.334,14.544 14.274,54.949 16.562,81.44 12.488,84.062 8.417,86.79 4.37,89.628 1.775,68.235 -1.153,34.991 0,0" id="path13"/>
    <path clip-path="url(#clipPath16)" transform="matrix(1.3333333,0,0,-1.3333333,580.53773,522.72133)" style="fill:#1e2a59;fill-opacity:1;fill-rule:nonzero;stroke:none" d="m 0,0 c -0.096,-2.549 -0.205,-5.104 -0.346,-7.664 -0.28,-5.096 -0.693,-10.147 -1.164,-15.149 29.347,28.768 45.015,66.654 53.369,100.516 0.555,2.249 1.092,4.488 1.584,6.698 0.563,2.527 1.086,5.025 1.572,7.489 0.162,0.823 0.346,1.666 0.5,2.481 4.1,21.684 5.332,40.417 5.654,52.341 H 48.795 C 47.768,118.3 40.902,48.946 0,0" id="path15"/>
    <path clip-path="url(#clipPath18)" transform="matrix(1.3333333,0,0,-1.3333333,201.11333,983.93427)" style="fill:#1e2a59;fill-opacity:1;fill-rule:nonzero;stroke:none" d="m 0,0 c 0,-2.021 -0.018,-3.816 -0.055,-5.386 -0.04,-1.572 -0.132,-2.844 -0.28,-3.816 1.569,0 3.141,-0.019 4.712,-0.056 1.572,-0.038 2.974,-0.056 4.208,-0.056 h 2.637 c 4.637,0 8.753,0.858 12.343,2.58 3.591,1.721 6.639,4.113 9.146,7.183 2.506,3.066 4.413,6.62 5.724,10.66 1.307,4.039 1.962,8.34 1.962,12.904 0,7.331 -1.198,13.539 -3.59,18.628 -2.395,5.086 -6.004,8.977 -10.829,11.67 -4.825,2.692 -10.829,4.077 -18.01,4.152 -2.469,0 -4.264,-0.432 -5.386,-1.291 C 1.46,56.312 0.748,54.984 0.45,53.189 0.149,51.394 0,49.11 0,46.343 Z m -19.749,-9.988 c 2.469,0.15 4.244,0.674 5.33,1.572 1.085,0.897 1.777,2.244 2.077,4.04 0.297,1.795 0.448,4.075 0.448,6.844 v 46.681 c 0,1.644 0.037,3.235 0.113,4.769 0.073,1.532 0.149,2.862 0.224,3.983 -1.273,-0.074 -2.657,-0.15 -4.151,-0.224 -1.499,-0.075 -2.845,-0.151 -4.041,-0.224 v 6.171 l 28.615,0.112 c 6.957,0 13.203,-0.898 18.74,-2.693 5.535,-1.795 10.248,-4.396 14.139,-7.798 3.887,-3.406 6.844,-7.538 8.864,-12.4 2.019,-4.863 3.03,-10.286 3.03,-16.271 0,-5.012 -0.862,-9.874 -2.58,-14.588 C 49.336,5.274 46.7,1.066 43.147,-2.638 39.593,-6.34 35.125,-9.314 29.738,-11.558 24.35,-13.802 17.992,-14.925 10.661,-14.925 h -30.41 z" id="path17"/>
    <path clip-path="url(#clipPath20)" transform="matrix(1.3333333,0,0,-1.3333333,332.7532,964.0364)" style="fill:#1e2a59;fill-opacity:1;fill-rule:nonzero;stroke:none" d="m 0,0 h 23.565 l -7.07,18.964 c -0.898,2.47 -1.757,4.919 -2.58,7.35 -0.825,2.43 -1.572,4.769 -2.245,7.014 H 11.559 C 10.959,31.458 10.286,29.401 9.54,27.157 8.789,24.912 7.93,22.479 6.958,19.862 Z m -21.881,-29.848 v 5.049 c 2.245,0 3.964,0.598 5.162,1.796 1.196,1.196 2.205,2.823 3.03,4.881 0.821,2.057 1.719,4.357 2.693,6.901 L 11.67,50.833 h 4.49 l 24.574,-62.952 c 0.598,-1.422 1.271,-3.348 2.019,-5.779 0.747,-2.432 1.084,-4.507 1.011,-6.227 1.271,0.149 2.524,0.242 3.758,0.28 1.235,0.036 2.413,0.093 3.535,0.169 v -6.172 H 23.79 v 4.937 c 2.618,0.074 4.356,0.654 5.218,1.74 0.859,1.083 1.195,2.413 1.009,3.983 -0.188,1.571 -0.58,3.142 -1.178,4.713 l -3.365,9.089 -27.494,-0.673 -3.253,-9.762 c -0.45,-1.498 -0.936,-2.918 -1.459,-4.264 -0.524,-1.347 -1.049,-2.657 -1.571,-3.928 1.345,0.149 2.786,0.242 4.321,0.28 1.531,0.038 2.897,0.093 4.095,0.169 v -6.284 z" id="path19"/>
    <path clip-path="url(#clipPath22)" transform="matrix(1.3333333,0,0,-1.3333333,488.5872,1005.3307)" style="fill:#1e2a59;fill-opacity:1;fill-rule:nonzero;stroke:none" d="m 0,0 c -3.068,7.031 -6.136,14.064 -9.203,21.096 -3.068,7.031 -6.098,14.101 -9.088,21.209 -0.897,2.093 -1.835,4.376 -2.805,6.844 -0.974,2.47 -1.947,5.087 -2.917,7.856 -0.974,2.766 -1.908,5.572 -2.806,8.416 V 59.81 54.648 c -0.075,-2.319 -0.151,-5.031 -0.224,-8.135 -0.077,-3.106 -0.169,-6.379 -0.281,-9.819 -0.113,-3.442 -0.187,-6.864 -0.225,-10.267 -0.039,-3.405 -0.095,-6.677 -0.168,-9.819 0,-1.795 -0.038,-3.554 -0.113,-5.274 -0.074,-1.722 -0.188,-3.218 -0.337,-4.488 1.348,0.149 2.786,0.242 4.321,0.28 1.534,0.036 2.899,0.093 4.095,0.168 V 1.123 H -42.53 V 6.06 c 2.094,0.073 3.704,0.486 4.825,1.234 1.122,0.747 1.889,1.87 2.3,3.367 0.412,1.495 0.656,3.328 0.731,5.498 l 1.571,48.476 c 0.073,1.645 0.149,3.291 0.224,4.937 0.074,1.645 0.149,3.104 0.224,4.377 -1.346,-0.075 -2.768,-0.132 -4.263,-0.169 -1.499,-0.038 -2.806,-0.094 -3.927,-0.167 v 6.058 h 19.636 L -2.693,35.459 C -1.795,33.44 -0.897,31.289 0,29.007 0.898,26.725 1.812,24.48 2.75,22.274 3.684,20.068 4.525,17.991 5.273,16.047 h 0.224 c 0.823,2.245 1.757,4.713 2.806,7.406 1.047,2.693 1.945,5.086 2.693,7.182 3.216,8.079 6.49,16.158 9.818,24.238 3.329,8.08 6.603,16.344 9.82,24.798 h 19.749 v -4.937 c -1.795,0 -3.31,-0.318 -4.545,-0.954 -1.234,-0.636 -2.132,-1.777 -2.692,-3.422 -0.562,-1.646 -0.769,-4.003 -0.618,-7.069 l 2.469,-48.364 c 0.149,-1.498 0.206,-2.957 0.168,-4.377 -0.039,-1.422 -0.095,-2.619 -0.168,-3.59 1.346,0.073 2.786,0.13 4.321,0.168 1.532,0.036 2.861,0.093 3.982,0.168 V 1.123 H 26.146 V 6.06 c 2.168,0.073 3.833,0.523 4.993,1.346 1.159,0.823 1.924,2.114 2.299,3.871 0.375,1.758 0.486,4.058 0.337,6.902 L 31.98,50.833 c -0.075,1.123 -0.151,2.45 -0.224,3.984 -0.075,1.532 -0.168,3.142 -0.28,4.825 -0.113,1.683 -0.208,3.311 -0.281,4.881 -0.224,-0.524 -0.45,-1.066 -0.674,-1.627 -0.224,-0.561 -0.448,-1.178 -0.673,-1.852 L 5.723,0 Z" id="path21"/>
    <path clip-path="url(#clipPath24)" transform="matrix(1.3333333,0,0,-1.3333333,778.97267,983.93427)" style="fill:#1e2a59;fill-opacity:1;fill-rule:nonzero;stroke:none" d="m 0,0 c 0,-2.021 -0.018,-3.816 -0.055,-5.386 -0.04,-1.572 -0.132,-2.844 -0.28,-3.816 1.569,0 3.141,-0.019 4.712,-0.056 1.572,-0.038 2.974,-0.056 4.208,-0.056 h 2.637 c 4.637,0 8.753,0.858 12.343,2.58 3.591,1.721 6.639,4.113 9.146,7.183 2.506,3.066 4.413,6.62 5.724,10.66 1.307,4.039 1.962,8.34 1.962,12.904 0,7.331 -1.198,13.539 -3.59,18.628 -2.395,5.086 -6.004,8.977 -10.829,11.67 -4.825,2.692 -10.829,4.077 -18.01,4.152 -2.469,0 -4.264,-0.432 -5.386,-1.291 C 1.46,56.312 0.749,54.984 0.45,53.189 0.149,51.394 0,49.11 0,46.343 Z m -19.749,-9.988 c 2.469,0.15 4.244,0.674 5.33,1.572 1.085,0.897 1.777,2.244 2.077,4.04 0.297,1.795 0.448,4.075 0.448,6.844 v 46.681 c 0,1.644 0.037,3.235 0.113,4.769 0.073,1.532 0.149,2.862 0.224,3.983 -1.273,-0.074 -2.657,-0.15 -4.151,-0.224 -1.499,-0.075 -2.845,-0.151 -4.041,-0.224 v 6.171 l 28.615,0.112 c 6.957,0 13.203,-0.898 18.74,-2.693 5.536,-1.795 10.248,-4.396 14.139,-7.798 3.887,-3.406 6.844,-7.538 8.864,-12.4 2.019,-4.863 3.03,-10.286 3.03,-16.271 0,-5.012 -0.862,-9.874 -2.58,-14.588 C 49.336,5.274 46.7,1.066 43.147,-2.638 39.593,-6.34 35.125,-9.314 29.738,-11.558 24.35,-13.802 17.992,-14.925 10.661,-14.925 h -30.41 z" id="path23"/>
    <path clip-path="url(#clipPath26)" transform="matrix(1.3333333,0,0,-1.3333333,944.37693,998.44787)" style="fill:#1e2a59;fill-opacity:1;fill-rule:nonzero;stroke:none" d="m 0,0 c 4.339,0 8.097,0.971 11.278,2.918 3.18,1.944 5.796,4.544 7.855,7.799 2.056,3.254 3.571,6.844 4.544,10.772 0.972,3.928 1.46,7.836 1.46,11.726 0,4.787 -0.563,9.407 -1.684,13.859 -1.122,4.45 -2.825,8.452 -5.106,12.007 -2.284,3.552 -5.106,6.357 -8.472,8.416 -3.366,2.056 -7.257,3.085 -11.67,3.085 -4.34,0 -8.118,-1.01 -11.333,-3.029 -3.218,-2.02 -5.836,-4.657 -7.855,-7.912 -2.02,-3.254 -3.535,-6.844 -4.545,-10.772 -1.009,-3.928 -1.515,-7.874 -1.515,-11.838 0,-3.891 0.522,-8.007 1.571,-12.344 1.047,-4.34 2.655,-8.379 4.825,-12.12 2.169,-3.74 4.955,-6.77 8.36,-9.088 C -8.884,1.159 -4.787,0 0,0 m -0.561,-5.835 c -7.108,0 -13.185,1.197 -18.234,3.591 -5.049,2.393 -9.146,5.592 -12.287,9.594 -3.143,4.001 -5.463,8.433 -6.958,13.297 -1.496,4.862 -2.245,9.724 -2.245,14.588 0,4.713 0.803,9.482 2.413,14.307 1.608,4.825 4.04,9.258 7.294,13.298 3.254,4.039 7.331,7.293 12.231,9.762 4.9,2.469 10.641,3.703 17.225,3.703 6.881,0 12.81,-1.234 17.787,-3.703 4.974,-2.469 9.069,-5.742 12.287,-9.819 3.215,-4.077 5.628,-8.511 7.237,-13.297 1.608,-4.789 2.413,-9.538 2.413,-14.251 0,-4.639 -0.805,-9.37 -2.413,-14.195 C 34.58,16.215 32.149,11.764 28.895,7.687 25.641,3.608 21.583,0.337 16.721,-2.132 11.857,-4.601 6.096,-5.835 -0.561,-5.835" id="path25"/>
    <path clip-path="url(#clipPath28)" transform="matrix(1.3333333,0,0,-1.3333333,655.0124,998.44787)" style="fill:#1e2a59;fill-opacity:1;fill-rule:nonzero;stroke:none" d="m 0,0 c 4.339,0 8.097,0.971 11.278,2.918 3.18,1.944 5.796,4.544 7.855,7.799 2.056,3.254 3.571,6.844 4.543,10.772 0.973,3.928 1.461,7.836 1.461,11.726 0,4.787 -0.563,9.407 -1.684,13.859 -1.122,4.45 -2.825,8.452 -5.106,12.007 -2.284,3.552 -5.106,6.357 -8.472,8.416 -3.366,2.056 -7.257,3.085 -11.67,3.085 -4.34,0 -8.118,-1.01 -11.333,-3.029 -3.218,-2.02 -5.836,-4.657 -7.856,-7.912 -2.019,-3.254 -3.534,-6.844 -4.544,-10.772 -1.009,-3.928 -1.515,-7.874 -1.515,-11.838 0,-3.891 0.522,-8.007 1.571,-12.344 1.047,-4.34 2.655,-8.379 4.825,-12.12 2.169,-3.74 4.955,-6.77 8.36,-9.088 C -8.884,1.159 -4.787,0 0,0 m -0.561,-5.835 c -7.108,0 -13.185,1.197 -18.234,3.591 -5.049,2.393 -9.146,5.592 -12.287,9.594 -3.143,4.001 -5.463,8.433 -6.958,13.297 -1.497,4.862 -2.245,9.724 -2.245,14.588 0,4.713 0.803,9.482 2.413,14.307 1.608,4.825 4.04,9.258 7.294,13.298 3.254,4.039 7.331,7.293 12.231,9.762 4.9,2.469 10.641,3.703 17.225,3.703 6.881,0 12.81,-1.234 17.787,-3.703 4.974,-2.469 9.069,-5.742 12.287,-9.819 3.215,-4.077 5.628,-8.511 7.237,-13.297 1.608,-4.789 2.413,-9.538 2.413,-14.251 0,-4.639 -0.805,-9.37 -2.413,-14.195 C 34.58,16.215 32.149,11.764 28.895,7.687 25.641,3.608 21.583,0.337 16.721,-2.132 11.857,-4.601 6.096,-5.835 -0.561,-5.835" id="path27"/>
    <path clip-path="url(#clipPath30)" transform="matrix(1.3333333,0,0,-1.3333333,1079.7363,951.76693)" style="fill:#1e2a59;fill-opacity:1;fill-rule:nonzero;stroke:none" d="m 0,0 c 4.113,0.074 7.629,0.729 10.548,1.963 2.917,1.235 5.162,3.142 6.732,5.724 1.571,2.581 2.356,5.927 2.356,10.042 0,3.067 -0.448,5.648 -1.345,7.744 -0.898,2.093 -2.171,3.795 -3.815,5.106 -1.648,1.307 -3.611,2.244 -5.893,2.804 -2.281,0.561 -4.732,0.842 -7.349,0.842 -2.396,0 -4.135,-0.449 -5.218,-1.347 -1.085,-0.898 -1.777,-2.207 -2.076,-3.927 -0.3,-1.722 -0.45,-3.927 -0.45,-6.62 V 0.336 C -5.386,0.261 -4.321,0.168 -3.311,0.056 -2.302,-0.057 -1.198,-0.076 0,0 m -26.259,-39.05 v 4.937 c 2.469,0.149 4.245,0.674 5.33,1.571 1.085,0.898 1.777,2.245 2.077,4.04 0.297,1.795 0.449,4.076 0.449,6.844 v 46.682 c 0,1.644 0.036,3.235 0.112,4.768 0.073,1.533 0.15,2.862 0.225,3.984 -1.273,-0.075 -2.657,-0.151 -4.152,-0.224 -1.499,-0.076 -2.844,-0.151 -4.041,-0.225 v 6.172 c 4.563,0.073 9.163,0.13 13.802,0.168 4.638,0.038 9.314,0.018 14.028,-0.056 7.031,0 12.828,-0.804 17.393,-2.412 4.561,-1.61 7.985,-3.984 10.268,-7.126 2.28,-3.142 3.383,-7.108 3.31,-11.895 0.073,-2.992 -0.524,-5.966 -1.795,-8.92 -1.275,-2.956 -3.405,-5.594 -6.397,-7.912 -2.993,-2.32 -7.108,-4.077 -12.343,-5.274 1.494,-0.898 2.842,-2.132 4.038,-3.702 1.197,-1.572 2.431,-3.33 3.704,-5.275 l 6.845,-10.548 c 1.42,-2.244 2.731,-4.151 3.927,-5.723 1.196,-1.57 2.544,-2.787 4.041,-3.646 1.495,-0.862 3.29,-1.291 5.386,-1.291 V -39.05 H 24.35 c -1.946,1.644 -3.611,3.422 -4.995,5.33 -1.383,1.908 -2.86,4.057 -4.431,6.452 L 7.181,-14.7 c -0.972,1.496 -2.003,3.104 -3.086,4.825 -1.085,1.72 -2.263,3.179 -3.534,4.377 H -2.974 -6.51 v -18.516 c 0,-2.02 -0.018,-3.835 -0.054,-5.442 -0.04,-1.61 -0.133,-2.9 -0.281,-3.871 0.898,0.074 1.85,0.129 2.861,0.168 1.01,0.036 2.019,0.093 3.03,0.168 1.01,0.074 1.888,0.113 2.637,0.113 v -6.172 z" id="path29"/>
    <path clip-path="url(#clipPath32)" transform="matrix(1.3333333,0,0,-1.3333333,630.90947,974.8184)" style="fill:#1e2a59;fill-opacity:1;fill-rule:nonzero;stroke:none" d="m 0,0 h -9.284 v 3.86 h 5.423 v 27.341 h -5.423 v 3.86 H 0 Z" id="path31"/>
    <path clip-path="url(#clipPath34)" transform="matrix(1.3333333,0,0,-1.3333333,689.60547,974.8184)" style="fill:#1e2a59;fill-opacity:1;fill-rule:nonzero;stroke:none" d="M 0,0 H -9.284 V 35.061 H 0 v -3.86 H -5.423 V 3.86 H 0 Z" id="path33"/>
    <path clip-path="url(#clipPath36)" transform="matrix(1.3333333,0,0,-1.3333333,659.3464,974.8184)" style="fill:#1e2a59;fill-opacity:1;fill-rule:nonzero;stroke:none" d="m 0,0 h -7.912 l -13.687,32.38 3.555,1.502 L -5.352,3.86 h 2.781 l 12.549,30.015 3.563,-1.489 z" id="path35"/>
    <path clip-path="url(#clipPath38)" transform="matrix(1.3333333,0,0,-1.3333333,682.55013,974.8184)" style="fill:#1e2a59;fill-opacity:1;fill-rule:nonzero;stroke:none" d="m 0,0 h -6.437 l -31.581,31.201 h -4.85 v 3.86 h 6.437 L -4.85,3.86 H 0 Z" id="path37"/>
    <path clip-path="url(#clipPath40)" transform="matrix(1.3333333,0,0,-1.3333333,633.97587,974.8184)" style="fill:#1e2a59;fill-opacity:1;fill-rule:nonzero;stroke:none" d="m 0,0 h -6.437 v 3.86 h 4.85 l 31.58,31.201 h 6.438 v -3.86 h -4.85 z" id="path39"/>
    <path clip-path="url(#clipPath42)" transform="matrix(1.3333333,0,0,-1.3333333,1139.4713,887.23573)" style="fill:#1e2a59;fill-opacity:1;fill-rule:nonzero;stroke:none" d="M 0,0 H 1.335 C 2.892,0 4.152,0.519 4.152,1.78 4.152,2.892 3.337,3.633 1.557,3.633 0.816,3.633 0.297,3.56 0,3.485 Z M -0.074,-6.896 H -2.892 V 5.265 c 1.112,0.222 2.669,0.371 4.672,0.371 2.299,0 3.336,-0.371 4.226,-0.89 0.667,-0.519 1.186,-1.483 1.186,-2.67 0,-1.334 -1.038,-2.372 -2.521,-2.817 V -0.89 c 1.187,-0.444 1.854,-1.334 2.225,-2.965 0.371,-1.854 0.593,-2.596 0.89,-3.041 H 4.746 C 4.375,-6.451 4.152,-5.338 3.782,-3.929 3.56,-2.595 2.818,-2.001 1.261,-2.001 h -1.335 z m -7.489,6.377 c 0,-5.413 4.004,-9.713 9.491,-9.713 5.339,0 9.268,4.3 9.268,9.639 0,5.413 -3.929,9.787 -9.342,9.787 -5.413,0 -9.417,-4.374 -9.417,-9.713 m 21.874,0 c 0,-6.896 -5.413,-12.308 -12.457,-12.308 -6.97,0 -12.531,5.412 -12.531,12.308 0,6.748 5.561,12.161 12.531,12.161 7.044,0 12.457,-5.413 12.457,-12.161" id="path41"/>
  </g>
</svg>